# xmcd
#
# Track frame offsets:
#	150
#	16212
#	35187
#	51079
#	65375
#	84144
#	102390
#	120307
#	137789
#	166885
#
# Disc length: 2463 seconds
#
# Revision: 0
# Processed by: cddbd v1.5.2PL0 Copyright (c) Steve Scherf et al.
# Submitted via: audiograbber 1.83.01
#
DISCID=7a099d0a
DTITLE=Various Artist - AUDIO 2018-06 - Stockfisch Reference [AVM]
DYEAR=2018
DGENRE=Audiophile
TTITLE0=Carrie Newcomer - The Slender Thread
TTITLE1=Brian Flanagan - Where Dreams Are Made
TTITLE2=Steve Strauss - Sea Of Dreams
TTITLE3=McKinley Black - Beggars, Fools And Thieves
TTITLE4=David Munyon - Pretty Blue
TTITLE5=Allan Taylor - Down The Years I Travelled
TTITLE6=David Roth - Will You Come Home
TTITLE7=Brooke Miller - Familiar [piano version]
TTITLE8=Chris Jones - Roadhouses and Automobiles
TTITLE9=Sara K. - Made In The Shade
EXTD=
EXTT0=
EXTT1=
EXTT2=
EXTT3=
EXTT4=
EXTT5=
EXTT6=
EXTT7=
EXTT8=
EXTT9=
PLAYORDER=
